<?xml version="1.0" encoding="utf-8"?>
<!-- Generator: Adobe Illustrator 18.1.1, SVG Export Plug-In . SVG Version: 6.00 Build 0)  -->
<svg version="1.1" id="Layer_1" xmlns="http://www.w3.org/2000/svg" xmlns:xlink="http://www.w3.org/1999/xlink" x="0px" y="0px"
	 viewBox="98 0 318 311.8" enable-background="new 98 0 318 311.8" xml:space="preserve">
<path fill="#00A8E8" d="M373,59.9L279.7,6.5c-15.2-8.7-34-8.7-49.2,0l-93.3,53.4c-15.4,8.8-25,25.3-25,43v105.9
	c0,17.7,9.6,34.2,25,43.1l93.3,53.3c7.6,4.3,16.1,6.5,24.6,6.5c8.5,0,17-2.2,24.6-6.5l93.3-53.4c15.4-8.8,25-25.3,25-43V102.9
	C398,85.2,388.5,68.7,373,59.9L373,59.9z M143.6,71.2L237,17.8c11.2-6.4,25.1-6.4,36.3,0l93.3,53.3c3.7,2.1,6.7,5,9.4,8.2
	l-51.7,29.5c-2.5-3-5.4-5.7-8.9-7.7l-42.9-24.6c-10.8-6.2-24.2-6.2-34.9,0l-42.9,24.6c-3.5,2-6.3,4.7-8.9,7.7l-51.7-29.5
	C136.9,76.1,139.9,73.3,143.6,71.2L143.6,71.2z M320.1,131.6v48.7c0,7.9-4.3,15.3-11.1,19.2L266.1,224c-1.4,0.8-2.9,1.4-4.5,1.8
	v-66.2l57.8-33C319.8,128.3,320.1,129.9,320.1,131.6L320.1,131.6z M190.2,131.6c0-1.7,0.3-3.4,0.7-5l57.8,33v66.2
	c-1.5-0.5-3.1-1-4.5-1.8l-42.9-24.5c-6.9-3.9-11.1-11.3-11.1-19.2L190.2,131.6L190.2,131.6z M255.1,148.4l-57.7-33
	c1.2-1.1,2.4-2.1,3.9-3l42.9-24.6c3.4-1.9,7.2-2.9,11-2.9c3.8,0,7.6,1,11,2.9l42.9,24.6c1.4,0.8,2.7,1.9,3.9,3L255.1,148.4
	L255.1,148.4z M143.6,240.7c-11.4-6.5-18.4-18.7-18.4-31.8V102.9c0-4.3,1-8.4,2.5-12.4l51.7,29.6c-1.3,3.7-2.2,7.5-2.2,11.5v48.7
	c0,12.6,6.8,24.2,17.7,30.5l42.9,24.5c3.4,1.9,7.1,3.1,10.9,3.8V298c-4-0.7-8-1.9-11.7-4L143.6,240.7L143.6,240.7z M385,208.9
	c0,13.1-7.1,25.3-18.4,31.8L273.3,294c-3.7,2.1-7.6,3.2-11.7,4v-58.9c3.8-0.7,7.5-1.8,10.9-3.8l42.9-24.5
	c10.9-6.2,17.7-17.9,17.7-30.5v-48.7c0-4-0.9-7.8-2.2-11.5l51.7-29.6c1.4,3.9,2.5,8.1,2.5,12.4V208.9L385,208.9z"/>
</svg>
