<?xml version="1.0" encoding="utf-8"?>
<!-- Generator: Adobe Illustrator 18.1.1, SVG Export Plug-In . SVG Version: 6.00 Build 0)  -->
<svg version="1.1" id="Capa_2" xmlns="http://www.w3.org/2000/svg" xmlns:xlink="http://www.w3.org/1999/xlink" x="0px" y="0px"
	 viewBox="0 187.8 510.2 124" enable-background="new 0 187.8 510.2 124" xml:space="preserve">
<path fill="#A6B8C1" d="M62.1,228.6l2.4-0.9l2.1,0.6l1.4,1.2l0.5-5.5l-5.2-3.6L53,220.9l-3.3,12.4h13.6L62.1,228.6L62.1,228.6z
	 M105.4,208.9H86.9l-14.1,35.3h-6.4l-1.3-4.9H48.2l-1.3,4.9h-6.4l-14.1-35.3H8l1.6,12.3l14.1,6.7L10.6,229l1.1,8.5l15,7.1l-13.9,1.1
	l1,8l16.7,8L15,263l1.1,8.7l18.8,12.4l9.4-10.7l1.2,0.4l-4.9,14.5l16,10.5l0,0l0,0l0,0l16-10.5l-4.9-14.5l1.2-0.4l9.4,10.7
	l18.8-12.4l1.1-8.7l-15.5-1.3l16.7-8l1-8l-13.9-1.1l15-7.1l1.1-8.5l-12.9-1.1l14.1-6.7L105.4,208.9L105.4,208.9z M61.8,218.7
	l2.1-4.7l-11.5,2.2l0.6,2.9L61.8,218.7L61.8,218.7z"/>
<path fill="#A6B8C1" d="M241.2,208.9l-27.4,86.9h-6.5l-23.9-75.9l-23.9,75.9H153l-27.5-86.9h8.1l22.7,75.8l22.7-75.8h8.9l22.7,75.8
	l22.7-75.8H241.2L241.2,208.9z M322.6,295.8v-6.9h-21.7v-73.2h21.7v-6.8h-51.1v6.8h21.7v73.2h-21.7v6.8h51.1V295.8z M410.6,295.8
	v-6.9h-38v-80H365v86.9H410.6z M505.2,295.8l-28.7-86.9h-6.8L441,295.8h7.8l8.2-26.3h31.6l8.2,26.3H505.2L505.2,295.8z M459.2,262.7
	L473,219l13.7,43.7H459.2z"/>
</svg>
