<?xml version="1.0" encoding="utf-8"?>
<!-- Generator: Adobe Illustrator 18.1.1, SVG Export Plug-In . SVG Version: 6.00 Build 0)  -->
<svg version="1.1" id="Capa_2" xmlns="http://www.w3.org/2000/svg" xmlns:xlink="http://www.w3.org/1999/xlink" x="0px" y="0px"
	 viewBox="0 92.8 510.2 116" enable-background="new 0 92.8 510.2 116" xml:space="preserve">
<path fill="#041E42" d="M62.1,130.7l2.4-0.9l2.1,0.6l1.4,1.2l0.5-5.5l-5.2-3.6L53,123l-3.3,12.4h13.6L62.1,130.7L62.1,130.7z
	 M105.4,111H86.9l-14.1,35.3h-6.4l-1.3-4.9H48.2l-1.3,4.9h-6.4L26.4,111H8l1.6,12.3l14.1,6.7l-13.1,1.1l1.1,8.5l15,7.1l-13.9,1.1
	l1,8l16.7,8l-15.5,1.3l1.1,8.7l18.8,12.4l9.4-10.7l1.2,0.4l-4.9,14.5l16,10.5l0,0l0,0l0,0l16-10.5l-4.9-14.5l1.2-0.4l9.4,10.7
	l18.8-12.4l1.1-8.7l-15.5-1.3l16.7-8l1-8l-13.9-1.1l15-7.1l1.1-8.5L89.7,130l14.1-6.7L105.4,111L105.4,111z M61.8,120.8l2.1-4.7
	l-11.5,2.2l0.6,2.9L61.8,120.8L61.8,120.8z"/>
<path fill="#041E42" d="M241.2,111l-27.4,86.9h-6.5L183.4,122l-23.9,75.9h-6.5L125.5,111h8.1l22.7,75.8l22.7-75.8h8.9l22.7,75.8
	l22.7-75.8H241.2L241.2,111z M322.6,197.9V191h-21.7v-73.2h21.7V111h-51.1v6.8h21.7V191h-21.7v6.8H322.6z M410.6,197.9V191h-38V111
	H365v86.9H410.6z M505.2,197.9L476.5,111h-6.8L441,197.9h7.8l8.2-26.3h31.6l8.2,26.3H505.2L505.2,197.9z M459.2,164.8l13.8-43.7
	l13.7,43.7H459.2z"/>
</svg>
