<?xml version="1.0" encoding="utf-8"?>
<!-- Generator: Adobe Illustrator 18.1.1, SVG Export Plug-In . SVG Version: 6.00 Build 0)  -->
<svg version="1.1" id="Layer_1" xmlns="http://www.w3.org/2000/svg" xmlns:xlink="http://www.w3.org/1999/xlink" x="0px" y="0px"
	 viewBox="0 0 103.9 97.2" enable-background="new 0 0 103.9 97.2" xml:space="preserve">
<path fill="#0A2042" d="M58.2,24.4l2.4-0.9l2.1,0.6l1.4,1.2l0.5-5.5l-5.2-3.6l-10.3,0.4l-3.3,12.4h13.6L58.2,24.4L58.2,24.4z
	 M101.4,4.7H83L68.9,40h-6.4l-1.3-4.9H44.3L43,40h-6.4L22.5,4.7H4l1.6,12.3l14.1,6.7L6.7,24.8l1.1,8.5l15,7.1L8.9,41.6l1,8l16.7,8
	l-15.5,1.3l1.1,8.7l18.8,12.4l9.4-10.7l1.2,0.4l-4.9,14.5l16,10.5l0,0l0,0l0,0l16-10.5l-4.9-14.5l1.2-0.4l9.4,10.7l18.8-12.4
	l1.1-8.7l-15.5-1.3l16.7-8l1-8l-13.9-1.1l15-7.1l1.1-8.5l-13.1-1.1l14.1-6.7L101.4,4.7L101.4,4.7z M57.8,14.6L60,9.9L48.5,12
	l0.6,2.9L57.8,14.6L57.8,14.6z"/>
</svg>
