<?xml version="1.0" encoding="utf-8"?>
<!-- Generator: Adobe Illustrator 18.1.1, SVG Export Plug-In . SVG Version: 6.00 Build 0)  -->
<svg version="1.1" id="Layer_1" xmlns="http://www.w3.org/2000/svg" xmlns:xlink="http://www.w3.org/1999/xlink" x="0px" y="0px"
	 viewBox="-283 -56 512 512" enable-background="new -283 -56 512 512" xml:space="preserve">
<path fill="#F9F9F9" d="M-48.3,221.3v-128C-48.3,81.6-38.7,72-27,72s21.3,9.6,21.3,21.3v128c0,11.7-9.6,21.3-21.3,21.3
	S-48.3,233.1-48.3,221.3z M-27,264c-17.7,0-32,14.3-32,32s14.3,32,32,32s32-14.3,32-32S-9.3,264-27,264z M220,368.1
	c-14.9,28.8-46.3,45.2-85.5,45.2h-322.8c-39.5,0-70.6-16.4-85.5-45.2c-15.1-29-10.9-66.1,10.7-97.3L-91.6-0.5
	c15.1-21.8,39-34.1,64.6-34.1S22.5-22.3,37-1.2l172.4,272.4c21.5,31.1,25.6,68.1,10.5,96.9H220z M174.2,295.1c0,0-0.4-0.4-0.4-0.9
	L1.6,22.3C-4.6,13.5-15.3,8-27,8s-22.4,5.5-29,15.1l-171.7,271.1c-13.2,18.8-16.2,39.3-8.5,54c7.5,14.5,24.5,22.4,47.8,22.4h322.6
	c23.3,0,40.3-7.9,47.8-22.4c7.7-14.7,4.7-35.2-7.9-53.1H174.2z"/>
</svg>
