<?xml version="1.0" encoding="utf-8"?>
<!-- Generator: Adobe Illustrator 18.1.1, SVG Export Plug-In . SVG Version: 6.00 Build 0)  -->
<svg version="1.1" id="Layer_1" xmlns="http://www.w3.org/2000/svg" xmlns:xlink="http://www.w3.org/1999/xlink" x="0px" y="0px"
	 viewBox="330 0 418 400" enable-background="new 330 0 418 400" xml:space="preserve">
<path fill="#00A8E8" d="M740,391.7c0,4.6-3.7,8.3-8.3,8.3H415c-41.4,0-75-33.7-75-75V8.3c0-4.6,3.7-8.3,8.3-8.3
	c4.6,0,8.3,3.7,8.3,8.3V325c0,32.2,26.2,58.3,58.3,58.3h316.7C736.3,383.3,740,387.1,740,391.7z M648.3,333.3c4.6,0,8.3-3.7,8.3-8.3
	V108.3c0-4.6-3.7-8.3-8.3-8.3s-8.3,3.7-8.3,8.3V325C640,329.6,643.7,333.3,648.3,333.3z M581.7,333.3c4.6,0,8.3-3.7,8.3-8.3V191.7
	c0-4.6-3.7-8.3-8.3-8.3c-4.6,0-8.3,3.7-8.3,8.3V325C573.3,329.6,577.1,333.3,581.7,333.3z M515,333.3c4.6,0,8.3-3.7,8.3-8.3V108.3
	c0-4.6-3.7-8.3-8.3-8.3c-4.6,0-8.3,3.7-8.3,8.3V325C506.7,329.6,510.4,333.3,515,333.3z M448.3,333.3c4.6,0,8.3-3.7,8.3-8.3V191.7
	c0-4.6-3.7-8.3-8.3-8.3c-4.6,0-8.3,3.7-8.3,8.3V325C440,329.6,443.7,333.3,448.3,333.3z"/>
</svg>
