<?xml version="1.0" encoding="utf-8"?>
<!-- Generator: Adobe Illustrator 18.1.1, SVG Export Plug-In . SVG Version: 6.00 Build 0)  -->
<svg version="1.1" id="Layer_1" xmlns="http://www.w3.org/2000/svg" xmlns:xlink="http://www.w3.org/1999/xlink" x="0px" y="0px"
	 viewBox="-283 -56 512 512" enable-background="new -283 -56 512 512" xml:space="preserve">
<path fill="#2FD716" d="M92.2,127.1l15,15.1L-21.6,269.9c-10.3,10.2-23.9,15.3-37.5,15.3c-13.5,0-27-5-37.3-15.1l-64.7-63.8l15-15.2
	l64.7,63.8c12.4,12.1,32.5,12.1,44.9-0.1L92.2,127.1z M229,200c0,141.2-114.8,256-256,256s-256-114.8-256-256S-168.2-56-27-56
	S229,58.8,229,200z M207.7,200C207.7,70.6,102.4-34.7-27-34.7S-261.7,70.6-261.7,200S-156.4,434.7-27,434.7S207.7,329.4,207.7,200z"
	/>
</svg>
