<?xml version="1.0" encoding="utf-8"?>
<!-- Generator: Adobe Illustrator 18.1.1, SVG Export Plug-In . SVG Version: 6.00 Build 0)  -->
<svg version="1.1" id="Layer_1" xmlns="http://www.w3.org/2000/svg" xmlns:xlink="http://www.w3.org/1999/xlink" x="0px" y="0px"
	 viewBox="-283 -56 512 512" enable-background="new -283 -56 512 512" xml:space="preserve">
<path fill="#00A8E8" d="M69,93.3h-192c-6,0-10.7,4.7-10.7,10.7v192c0,6,4.7,10.7,10.7,10.7H69c6,0,10.7-4.7,10.7-10.7V104
	C79.7,98,75,93.3,69,93.3z M58.3,285.3h-170.7V114.7H58.3V285.3z M218.3,178.7c6,0,10.7-4.7,10.7-10.7s-4.7-10.7-10.7-10.7h-32
	v-42.7h32c6,0,10.7-4.7,10.7-10.7c0-6-4.7-10.7-10.7-10.7h-32V82.7c0-52.9-43.1-96-96-96H79.7v-32C79.7-51.3,75-56,69-56
	s-10.7,4.7-10.7,10.7v32H15.7v-32C15.7-51.3,11-56,5-56S-5.7-51.3-5.7-45.3v32h-42.7v-32c0-6-4.7-10.7-10.7-10.7
	s-10.7,4.7-10.7,10.7v32h-42.7v-32c0-6-4.7-10.7-10.7-10.7s-10.7,4.7-10.7,10.7v32h-10.7c-52.9,0-96,43.1-96,96v10.7h-32
	c-6,0-10.7,4.7-10.7,10.7c0,6,4.7,10.7,10.7,10.7h32v42.7h-32c-6,0-10.7,4.7-10.7,10.7s4.7,10.7,10.7,10.7h32v42.7h-32
	c-6,0-10.7,4.7-10.7,10.7s4.7,10.7,10.7,10.7h32v42.7h-32c-6,0-10.7,4.7-10.7,10.7c0,6,4.7,10.7,10.7,10.7h32v10.7
	c0,52.9,43.1,96,96,96h10.7v32c0,6,4.7,10.7,10.7,10.7s10.7-4.7,10.7-10.7v-32h42.7v32c0,6,4.7,10.7,10.7,10.7s10.7-4.7,10.7-10.7
	v-32h42.7v32c0,6,4.7,10.7,10.7,10.7s10.7-4.7,10.7-10.7v-32h42.7v32c0,6,4.7,10.7,10.7,10.7s10.7-4.7,10.7-10.7v-32h10.7
	c52.9,0,96-43.1,96-96v-10.7h32c6,0,10.7-4.7,10.7-10.7c0-6-4.7-10.7-10.7-10.7h-32v-42.7h32c6,0,10.7-4.7,10.7-10.7
	s-4.7-10.7-10.7-10.7h-32v-42.7H218.3z M165,317.3c0,41.2-33.5,74.7-74.7,74.7h-234.7c-41.2,0-74.7-33.5-74.7-74.7V82.7
	C-219,41.5-185.5,8-144.3,8H90.3C131.5,8,165,41.5,165,82.7V317.3z"/>
</svg>
