<?xml version="1.0" encoding="utf-8"?>
<!-- Generator: Adobe Illustrator 18.1.1, SVG Export Plug-In . SVG Version: 6.00 Build 0)  -->
<svg version="1.1" id="Layer_1" xmlns="http://www.w3.org/2000/svg" xmlns:xlink="http://www.w3.org/1999/xlink" x="0px" y="0px"
	 viewBox="-283 -56 512 512" enable-background="new -283 -56 512 512" xml:space="preserve">
<path fill="#2FD716" d="M-27,265.1V29.3h-21.3v235.7C-72.7,270-91,291.6-91,317.3c0,29.4,23.9,53.3,53.3,53.3s53.3-23.9,53.3-53.3
	C15.7,291.6-2.7,270-27,265.1z M-37.7,349.3c-17.6,0-32-14.4-32-32s14.4-32,32-32s32,14.4,32,32S-20,349.3-37.7,349.3z M175.7-56
	c-29.4,0-53.3,23.9-53.3,53.3s23.9,53.3,53.3,53.3S229,26.8,229-2.7S205.1-56,175.7-56z M175.7,29.3c-17.6,0-32-14.4-32-32
	s14.4-32,32-32s32,14.4,32,32S193.3,29.3,175.7,29.3z M58.3,217.5V40c0-52.9-43.1-96-96-96s-96,43.1-96,96v177.5
	c-34.7,33.3-49.5,81.2-39.7,129c10.8,52.7,53.5,95.5,106.1,106.4c9.8,2,19.6,3.1,29.4,3.1c31.9,0,62.8-10.7,87.7-31
	c32.5-26.5,51.2-65.7,51.2-107.6C101,279.7,85.5,243.6,58.3,217.5L58.3,217.5z M36.3,408.4c-27.5,22.4-63.8,31-99.3,23.6
	c-44.4-9.2-80.4-45.3-89.5-89.8c-8.6-42,5-83.9,36.5-112.2l3.5-3.2V40c0-41.2,33.5-74.7,74.7-74.7S37-1.2,37,40v186.9l3.5,3.2
	c24.9,22.3,39.1,54.1,39.1,87.3C79.7,352.8,63.9,386,36.3,408.4L36.3,408.4z"/>
</svg>
